<svg width="160" height="34" viewBox="0 0 160 34" fill="none" xmlns="http://www.w3.org/2000/svg">
                    <path d="M47.1143 16.1348V22H45.1387V14.6035H46.9912L47.1143 16.1348ZM46.8408 18.042H46.2939C46.2939 17.527 46.3555 17.0531 46.4785 16.6201C46.6061 16.1826 46.7907 15.8044 47.0322 15.4854C47.2783 15.1618 47.5814 14.9111 47.9414 14.7334C48.3014 14.5557 48.7184 14.4668 49.1924 14.4668C49.5205 14.4668 49.8213 14.5169 50.0947 14.6172C50.3682 14.7129 50.6029 14.8656 50.7988 15.0752C50.9993 15.2803 51.1543 15.5492 51.2637 15.8818C51.373 16.21 51.4277 16.6042 51.4277 17.0645V22H49.459V17.2832C49.459 16.946 49.4134 16.6862 49.3223 16.5039C49.2311 16.3216 49.1012 16.194 48.9326 16.1211C48.7686 16.0482 48.5703 16.0117 48.3379 16.0117C48.0827 16.0117 47.8594 16.0641 47.668 16.1689C47.4811 16.2738 47.3262 16.4196 47.2031 16.6064C47.0801 16.7887 46.9889 17.0029 46.9297 17.249C46.8704 17.4951 46.8408 17.7594 46.8408 18.042ZM51.2432 17.8164L50.5391 17.9053C50.5391 17.4222 50.5983 16.9733 50.7168 16.5586C50.8398 16.1439 51.0199 15.7793 51.2568 15.4648C51.4984 15.1504 51.7969 14.9066 52.1523 14.7334C52.5078 14.5557 52.918 14.4668 53.3828 14.4668C53.7383 14.4668 54.0618 14.5192 54.3535 14.624C54.6452 14.7243 54.8936 14.8861 55.0986 15.1094C55.3083 15.3281 55.4678 15.6152 55.5771 15.9707C55.6911 16.3262 55.748 16.7614 55.748 17.2764V22H53.7725V17.2764C53.7725 16.9346 53.7269 16.6748 53.6357 16.4971C53.5492 16.3148 53.4215 16.1895 53.2529 16.1211C53.0889 16.0482 52.8929 16.0117 52.665 16.0117C52.4281 16.0117 52.2207 16.0596 52.043 16.1553C51.8652 16.2464 51.7171 16.374 51.5986 16.5381C51.4801 16.7021 51.3913 16.8936 51.332 17.1123C51.2728 17.3265 51.2432 17.5612 51.2432 17.8164ZM61.2646 20.332V17.0371C61.2646 16.8001 61.2259 16.5973 61.1484 16.4287C61.071 16.2555 60.9502 16.1211 60.7861 16.0254C60.6266 15.9297 60.4193 15.8818 60.1641 15.8818C59.9453 15.8818 59.7562 15.9206 59.5967 15.998C59.4372 16.071 59.3141 16.1781 59.2275 16.3193C59.141 16.4561 59.0977 16.6178 59.0977 16.8047H57.1289C57.1289 16.4902 57.2018 16.1917 57.3477 15.9092C57.4935 15.6266 57.7054 15.3783 57.9834 15.1641C58.2614 14.9453 58.5918 14.7744 58.9746 14.6514C59.362 14.5283 59.7949 14.4668 60.2734 14.4668C60.8477 14.4668 61.3581 14.5625 61.8047 14.7539C62.2513 14.9453 62.6022 15.2324 62.8574 15.6152C63.1172 15.998 63.2471 16.4766 63.2471 17.0508V20.2158C63.2471 20.6214 63.2721 20.9541 63.3223 21.2139C63.3724 21.4691 63.4453 21.6924 63.541 21.8838V22H61.5518C61.4561 21.7995 61.3831 21.5488 61.333 21.248C61.2874 20.9427 61.2646 20.6374 61.2646 20.332ZM61.5244 17.4951L61.5381 18.6094H60.4375C60.1777 18.6094 59.9521 18.639 59.7607 18.6982C59.5693 18.7575 59.4121 18.8418 59.2891 18.9512C59.166 19.056 59.0749 19.179 59.0156 19.3203C58.9609 19.4616 58.9336 19.6165 58.9336 19.7852C58.9336 19.9538 58.9723 20.1064 59.0498 20.2432C59.1273 20.3753 59.2389 20.4801 59.3848 20.5576C59.5306 20.6305 59.7015 20.667 59.8975 20.667C60.1937 20.667 60.4512 20.6077 60.6699 20.4893C60.8887 20.3708 61.0573 20.2249 61.1758 20.0518C61.2988 19.8786 61.3626 19.7145 61.3672 19.5596L61.8867 20.3936C61.8138 20.5804 61.7135 20.7741 61.5859 20.9746C61.4629 21.1751 61.3057 21.3643 61.1143 21.542C60.9229 21.7152 60.6927 21.8587 60.4238 21.9727C60.1549 22.082 59.8359 22.1367 59.4668 22.1367C58.9974 22.1367 58.5713 22.0433 58.1885 21.8564C57.8102 21.665 57.5094 21.403 57.2861 21.0703C57.0674 20.7331 56.958 20.3503 56.958 19.9219C56.958 19.5345 57.0309 19.1904 57.1768 18.8896C57.3226 18.5889 57.5368 18.3359 57.8193 18.1309C58.1064 17.9212 58.4642 17.764 58.8926 17.6592C59.321 17.5498 59.8177 17.4951 60.3828 17.4951H61.5244ZM66.6924 16.1826V22H64.7236V14.6035H66.5693L66.6924 16.1826ZM66.4053 18.042H65.8721C65.8721 17.4951 65.9427 17.0029 66.084 16.5654C66.2253 16.1234 66.4235 15.7474 66.6787 15.4375C66.9339 15.123 67.237 14.8838 67.5879 14.7197C67.9434 14.5511 68.3398 14.4668 68.7773 14.4668C69.1237 14.4668 69.4404 14.5169 69.7275 14.6172C70.0146 14.7174 70.2607 14.877 70.4658 15.0957C70.6755 15.3145 70.835 15.6038 70.9443 15.9639C71.0583 16.3239 71.1152 16.7637 71.1152 17.2832V22H69.1328V17.2764C69.1328 16.9482 69.0872 16.693 68.9961 16.5107C68.9049 16.3285 68.7705 16.2008 68.5928 16.1279C68.4196 16.0505 68.2054 16.0117 67.9502 16.0117C67.6859 16.0117 67.4557 16.0641 67.2598 16.1689C67.0684 16.2738 66.9089 16.4196 66.7812 16.6064C66.6582 16.7887 66.5648 17.0029 66.501 17.249C66.4372 17.4951 66.4053 17.7594 66.4053 18.042ZM77.2949 14.6035H79.0791V21.7539C79.0791 22.4284 78.9287 23.0003 78.6279 23.4697C78.3317 23.9437 77.917 24.3014 77.3838 24.543C76.8506 24.7891 76.2308 24.9121 75.5244 24.9121C75.2145 24.9121 74.8864 24.8711 74.54 24.7891C74.1982 24.707 73.8701 24.5794 73.5557 24.4062C73.2458 24.2331 72.986 24.0143 72.7764 23.75L73.6445 22.5879C73.8724 22.8522 74.1367 23.0573 74.4375 23.2031C74.7383 23.3535 75.071 23.4287 75.4355 23.4287C75.791 23.4287 76.0918 23.3626 76.3379 23.2305C76.584 23.1029 76.7731 22.9137 76.9053 22.6631C77.0374 22.417 77.1035 22.1185 77.1035 21.7676V16.3125L77.2949 14.6035ZM72.3184 18.3906V18.2471C72.3184 17.682 72.3867 17.1693 72.5234 16.709C72.6647 16.2441 72.863 15.8454 73.1182 15.5127C73.3779 15.18 73.6924 14.9225 74.0615 14.7402C74.4307 14.5579 74.8477 14.4668 75.3125 14.4668C75.8047 14.4668 76.2171 14.5579 76.5498 14.7402C76.8825 14.9225 77.1559 15.1823 77.3701 15.5195C77.5843 15.8522 77.7507 16.2464 77.8691 16.7021C77.9922 17.1533 78.0879 17.6478 78.1562 18.1855V18.5C78.0879 19.015 77.9854 19.4935 77.8486 19.9355C77.7119 20.3776 77.5319 20.765 77.3086 21.0977C77.0853 21.4258 76.8073 21.681 76.4746 21.8633C76.1465 22.0456 75.7546 22.1367 75.2988 22.1367C74.8431 22.1367 74.4307 22.0433 74.0615 21.8564C73.6969 21.6696 73.3848 21.4076 73.125 21.0703C72.8652 20.7331 72.6647 20.3366 72.5234 19.8809C72.3867 19.4251 72.3184 18.9284 72.3184 18.3906ZM74.2871 18.2471V18.3906C74.2871 18.696 74.3167 18.9808 74.376 19.2451C74.4352 19.5094 74.5264 19.7441 74.6494 19.9492C74.777 20.1497 74.9342 20.307 75.1211 20.4209C75.3125 20.5303 75.5381 20.585 75.7979 20.585C76.1579 20.585 76.4518 20.5098 76.6797 20.3594C76.9076 20.2044 77.0785 19.9925 77.1924 19.7236C77.3063 19.4548 77.3724 19.1449 77.3906 18.7939V17.8984C77.3815 17.6113 77.3428 17.3538 77.2744 17.126C77.2061 16.8936 77.1104 16.6953 76.9873 16.5312C76.8643 16.3672 76.7048 16.2396 76.5088 16.1484C76.3128 16.0573 76.0804 16.0117 75.8115 16.0117C75.5518 16.0117 75.3262 16.071 75.1348 16.1895C74.9479 16.3034 74.7907 16.4606 74.6631 16.6611C74.54 16.8617 74.4466 17.0986 74.3828 17.3721C74.319 17.641 74.2871 17.9326 74.2871 18.2471ZM83.666 20.5986C83.9076 20.5986 84.1217 20.5531 84.3086 20.4619C84.4954 20.3662 84.6413 20.234 84.7461 20.0654C84.8555 19.8923 84.9124 19.6895 84.917 19.457H86.7695C86.765 19.9766 86.626 20.4391 86.3525 20.8447C86.0791 21.2458 85.7122 21.5625 85.252 21.7949C84.7917 22.0228 84.2767 22.1367 83.707 22.1367C83.1328 22.1367 82.6315 22.041 82.2031 21.8496C81.7793 21.6582 81.4261 21.3939 81.1436 21.0566C80.861 20.7148 80.6491 20.3184 80.5078 19.8672C80.3665 19.4115 80.2959 18.9238 80.2959 18.4043V18.2061C80.2959 17.682 80.3665 17.1943 80.5078 16.7432C80.6491 16.2874 80.861 15.891 81.1436 15.5537C81.4261 15.2119 81.7793 14.9453 82.2031 14.7539C82.627 14.5625 83.1237 14.4668 83.6934 14.4668C84.2995 14.4668 84.8304 14.583 85.2861 14.8154C85.7464 15.0479 86.1064 15.3805 86.3662 15.8135C86.6305 16.2419 86.765 16.75 86.7695 17.3379H84.917C84.9124 17.0918 84.86 16.8685 84.7598 16.668C84.6641 16.4674 84.5228 16.3079 84.3359 16.1895C84.1536 16.0664 83.9281 16.0049 83.6592 16.0049C83.3721 16.0049 83.1374 16.0664 82.9551 16.1895C82.7728 16.3079 82.6315 16.472 82.5312 16.6816C82.431 16.8867 82.3604 17.1214 82.3193 17.3857C82.2829 17.6455 82.2646 17.9189 82.2646 18.2061V18.4043C82.2646 18.6914 82.2829 18.9671 82.3193 19.2314C82.3558 19.4958 82.4242 19.7305 82.5244 19.9355C82.6292 20.1406 82.7728 20.3024 82.9551 20.4209C83.1374 20.5394 83.3743 20.5986 83.666 20.5986ZM87.5967 18.377V18.2334C87.5967 17.6911 87.6742 17.1921 87.8291 16.7363C87.984 16.276 88.2096 15.8773 88.5059 15.54C88.8021 15.2028 89.1667 14.9408 89.5996 14.7539C90.0326 14.5625 90.5293 14.4668 91.0898 14.4668C91.6504 14.4668 92.1494 14.5625 92.5869 14.7539C93.0244 14.9408 93.3913 15.2028 93.6875 15.54C93.9883 15.8773 94.2161 16.276 94.3711 16.7363C94.526 17.1921 94.6035 17.6911 94.6035 18.2334V18.377C94.6035 18.9147 94.526 19.4137 94.3711 19.874C94.2161 20.3298 93.9883 20.7285 93.6875 21.0703C93.3913 21.4076 93.0267 21.6696 92.5938 21.8564C92.1608 22.0433 91.6641 22.1367 91.1035 22.1367C90.543 22.1367 90.0439 22.0433 89.6064 21.8564C89.1735 21.6696 88.8066 21.4076 88.5059 21.0703C88.2096 20.7285 87.984 20.3298 87.8291 19.874C87.6742 19.4137 87.5967 18.9147 87.5967 18.377ZM89.5654 18.2334V18.377C89.5654 18.6868 89.5928 18.9762 89.6475 19.2451C89.7021 19.514 89.7887 19.751 89.9072 19.9561C90.0303 20.1566 90.1898 20.3138 90.3857 20.4277C90.5817 20.5417 90.821 20.5986 91.1035 20.5986C91.377 20.5986 91.6117 20.5417 91.8076 20.4277C92.0036 20.3138 92.1608 20.1566 92.2793 19.9561C92.3978 19.751 92.4844 19.514 92.5391 19.2451C92.5983 18.9762 92.6279 18.6868 92.6279 18.377V18.2334C92.6279 17.9326 92.5983 17.6501 92.5391 17.3857C92.4844 17.1169 92.3955 16.8799 92.2725 16.6748C92.154 16.4652 91.9967 16.3011 91.8008 16.1826C91.6048 16.0641 91.3678 16.0049 91.0898 16.0049C90.8118 16.0049 90.5749 16.0641 90.3789 16.1826C90.1875 16.3011 90.0303 16.4652 89.9072 16.6748C89.7887 16.8799 89.7021 17.1169 89.6475 17.3857C89.5928 17.6501 89.5654 17.9326 89.5654 18.2334ZM100.182 20.3867V11.5H102.164V22H100.38L100.182 20.3867ZM95.5059 18.3906V18.2471C95.5059 17.682 95.5697 17.1693 95.6973 16.709C95.8249 16.2441 96.0117 15.8454 96.2578 15.5127C96.5039 15.18 96.807 14.9225 97.167 14.7402C97.527 14.5579 97.9372 14.4668 98.3975 14.4668C98.8304 14.4668 99.2087 14.5579 99.5322 14.7402C99.8604 14.9225 100.138 15.1823 100.366 15.5195C100.599 15.8522 100.785 16.2464 100.927 16.7021C101.068 17.1533 101.171 17.6478 101.234 18.1855V18.5C101.171 19.015 101.068 19.4935 100.927 19.9355C100.785 20.3776 100.599 20.765 100.366 21.0977C100.138 21.4258 99.8604 21.681 99.5322 21.8633C99.2041 22.0456 98.8213 22.1367 98.3838 22.1367C97.9235 22.1367 97.5133 22.0433 97.1533 21.8564C96.7979 21.6696 96.4971 21.4076 96.251 21.0703C96.0094 20.7331 95.8249 20.3366 95.6973 19.8809C95.5697 19.4251 95.5059 18.9284 95.5059 18.3906ZM97.4746 18.2471V18.3906C97.4746 18.696 97.4974 18.9808 97.543 19.2451C97.5931 19.5094 97.6729 19.7441 97.7822 19.9492C97.8962 20.1497 98.042 20.307 98.2197 20.4209C98.402 20.5303 98.623 20.585 98.8828 20.585C99.2201 20.585 99.498 20.5098 99.7168 20.3594C99.9355 20.2044 100.102 19.9925 100.216 19.7236C100.334 19.4548 100.403 19.1449 100.421 18.7939V17.8984C100.407 17.6113 100.366 17.3538 100.298 17.126C100.234 16.8936 100.138 16.6953 100.011 16.5312C99.8877 16.3672 99.7327 16.2396 99.5459 16.1484C99.3636 16.0573 99.1471 16.0117 98.8965 16.0117C98.6413 16.0117 98.4225 16.071 98.2402 16.1895C98.0579 16.3034 97.9098 16.4606 97.7959 16.6611C97.6865 16.8617 97.6045 17.0986 97.5498 17.3721C97.4997 17.641 97.4746 17.9326 97.4746 18.2471ZM105.78 14.6035V22H103.805V14.6035H105.78ZM103.682 12.6758C103.682 12.3887 103.782 12.1517 103.982 11.9648C104.183 11.778 104.452 11.6846 104.789 11.6846C105.122 11.6846 105.388 11.778 105.589 11.9648C105.794 12.1517 105.896 12.3887 105.896 12.6758C105.896 12.9629 105.794 13.1999 105.589 13.3867C105.388 13.5736 105.122 13.667 104.789 13.667C104.452 13.667 104.183 13.5736 103.982 13.3867C103.782 13.1999 103.682 12.9629 103.682 12.6758ZM109.335 16.1826V22H107.366V14.6035H109.212L109.335 16.1826ZM109.048 18.042H108.515C108.515 17.4951 108.585 17.0029 108.727 16.5654C108.868 16.1234 109.066 15.7474 109.321 15.4375C109.576 15.123 109.88 14.8838 110.23 14.7197C110.586 14.5511 110.982 14.4668 111.42 14.4668C111.766 14.4668 112.083 14.5169 112.37 14.6172C112.657 14.7174 112.903 14.877 113.108 15.0957C113.318 15.3145 113.478 15.6038 113.587 15.9639C113.701 16.3239 113.758 16.7637 113.758 17.2832V22H111.775V17.2764C111.775 16.9482 111.73 16.693 111.639 16.5107C111.548 16.3285 111.413 16.2008 111.235 16.1279C111.062 16.0505 110.848 16.0117 110.593 16.0117C110.328 16.0117 110.098 16.0641 109.902 16.1689C109.711 16.2738 109.551 16.4196 109.424 16.6064C109.301 16.7887 109.207 17.0029 109.144 17.249C109.08 17.4951 109.048 17.7594 109.048 18.042ZM119.938 14.6035H121.722V21.7539C121.722 22.4284 121.571 23.0003 121.271 23.4697C120.974 23.9437 120.56 24.3014 120.026 24.543C119.493 24.7891 118.873 24.9121 118.167 24.9121C117.857 24.9121 117.529 24.8711 117.183 24.7891C116.841 24.707 116.513 24.5794 116.198 24.4062C115.888 24.2331 115.629 24.0143 115.419 23.75L116.287 22.5879C116.515 22.8522 116.779 23.0573 117.08 23.2031C117.381 23.3535 117.714 23.4287 118.078 23.4287C118.434 23.4287 118.734 23.3626 118.98 23.2305C119.227 23.1029 119.416 22.9137 119.548 22.6631C119.68 22.417 119.746 22.1185 119.746 21.7676V16.3125L119.938 14.6035ZM114.961 18.3906V18.2471C114.961 17.682 115.029 17.1693 115.166 16.709C115.307 16.2441 115.506 15.8454 115.761 15.5127C116.021 15.18 116.335 14.9225 116.704 14.7402C117.073 14.5579 117.49 14.4668 117.955 14.4668C118.447 14.4668 118.86 14.5579 119.192 14.7402C119.525 14.9225 119.799 15.1823 120.013 15.5195C120.227 15.8522 120.393 16.2464 120.512 16.7021C120.635 17.1533 120.73 17.6478 120.799 18.1855V18.5C120.73 19.015 120.628 19.4935 120.491 19.9355C120.354 20.3776 120.174 20.765 119.951 21.0977C119.728 21.4258 119.45 21.681 119.117 21.8633C118.789 22.0456 118.397 22.1367 117.941 22.1367C117.486 22.1367 117.073 22.0433 116.704 21.8564C116.34 21.6696 116.027 21.4076 115.768 21.0703C115.508 20.7331 115.307 20.3366 115.166 19.8809C115.029 19.4251 114.961 18.9284 114.961 18.3906ZM116.93 18.2471V18.3906C116.93 18.696 116.959 18.9808 117.019 19.2451C117.078 19.5094 117.169 19.7441 117.292 19.9492C117.42 20.1497 117.577 20.307 117.764 20.4209C117.955 20.5303 118.181 20.585 118.44 20.585C118.8 20.585 119.094 20.5098 119.322 20.3594C119.55 20.2044 119.721 19.9925 119.835 19.7236C119.949 19.4548 120.015 19.1449 120.033 18.7939V17.8984C120.024 17.6113 119.985 17.3538 119.917 17.126C119.849 16.8936 119.753 16.6953 119.63 16.5312C119.507 16.3672 119.347 16.2396 119.151 16.1484C118.955 16.0573 118.723 16.0117 118.454 16.0117C118.194 16.0117 117.969 16.071 117.777 16.1895C117.59 16.3034 117.433 16.4606 117.306 16.6611C117.183 16.8617 117.089 17.0986 117.025 17.3721C116.962 17.641 116.93 17.9326 116.93 18.2471ZM132.044 19.3955C132.044 19.2178 132.017 19.0583 131.962 18.917C131.912 18.7712 131.816 18.639 131.675 18.5205C131.534 18.3975 131.335 18.2767 131.08 18.1582C130.825 18.0397 130.494 17.9167 130.089 17.7891C129.638 17.6432 129.209 17.4792 128.804 17.2969C128.403 17.1146 128.047 16.9027 127.737 16.6611C127.432 16.415 127.19 16.1302 127.013 15.8066C126.84 15.4831 126.753 15.1071 126.753 14.6787C126.753 14.264 126.844 13.888 127.026 13.5508C127.209 13.209 127.464 12.9173 127.792 12.6758C128.12 12.4297 128.507 12.2406 128.954 12.1084C129.405 11.9762 129.9 11.9102 130.438 11.9102C131.171 11.9102 131.812 12.0423 132.358 12.3066C132.905 12.571 133.329 12.9333 133.63 13.3936C133.935 13.8538 134.088 14.3802 134.088 14.9727H132.051C132.051 14.681 131.989 14.4258 131.866 14.207C131.748 13.9837 131.565 13.8083 131.319 13.6807C131.078 13.5531 130.772 13.4893 130.403 13.4893C130.048 13.4893 129.752 13.5439 129.515 13.6533C129.278 13.7581 129.1 13.9017 128.981 14.084C128.863 14.2617 128.804 14.4622 128.804 14.6855C128.804 14.8542 128.845 15.0068 128.927 15.1436C129.013 15.2803 129.141 15.4079 129.31 15.5264C129.478 15.6449 129.686 15.7565 129.932 15.8613C130.178 15.9661 130.463 16.0687 130.786 16.1689C131.328 16.333 131.805 16.5176 132.215 16.7227C132.63 16.9277 132.976 17.1579 133.254 17.4131C133.532 17.6683 133.742 17.9577 133.883 18.2812C134.024 18.6048 134.095 18.9717 134.095 19.3818C134.095 19.8148 134.01 20.2021 133.842 20.5439C133.673 20.8857 133.429 21.1751 133.11 21.4121C132.791 21.6491 132.411 21.8291 131.969 21.9521C131.527 22.0752 131.032 22.1367 130.485 22.1367C129.993 22.1367 129.508 22.0729 129.029 21.9453C128.551 21.8132 128.116 21.6149 127.724 21.3506C127.336 21.0863 127.026 20.749 126.794 20.3389C126.562 19.9287 126.445 19.4434 126.445 18.8828H128.503C128.503 19.1927 128.551 19.4548 128.646 19.6689C128.742 19.8831 128.877 20.0563 129.05 20.1885C129.228 20.3206 129.437 20.4163 129.679 20.4756C129.925 20.5348 130.194 20.5645 130.485 20.5645C130.841 20.5645 131.132 20.5143 131.36 20.4141C131.593 20.3138 131.764 20.1748 131.873 19.9971C131.987 19.8193 132.044 19.6188 132.044 19.3955ZM138.989 14.6035V15.998H134.683V14.6035H138.989ZM135.749 12.7783H137.718V19.7715C137.718 19.9857 137.745 20.1497 137.8 20.2637C137.859 20.3776 137.946 20.4574 138.06 20.5029C138.174 20.5439 138.317 20.5645 138.49 20.5645C138.613 20.5645 138.723 20.5599 138.818 20.5508C138.919 20.5371 139.003 20.5234 139.071 20.5098L139.078 21.959C138.91 22.0137 138.727 22.057 138.531 22.0889C138.335 22.1208 138.119 22.1367 137.882 22.1367C137.449 22.1367 137.071 22.0661 136.747 21.9248C136.428 21.779 136.182 21.5465 136.009 21.2275C135.836 20.9085 135.749 20.4893 135.749 19.9697V12.7783ZM139.618 18.377V18.2334C139.618 17.6911 139.696 17.1921 139.851 16.7363C140.006 16.276 140.231 15.8773 140.527 15.54C140.824 15.2028 141.188 14.9408 141.621 14.7539C142.054 14.5625 142.551 14.4668 143.111 14.4668C143.672 14.4668 144.171 14.5625 144.608 14.7539C145.046 14.9408 145.413 15.2028 145.709 15.54C146.01 15.8773 146.238 16.276 146.393 16.7363C146.548 17.1921 146.625 17.6911 146.625 18.2334V18.377C146.625 18.9147 146.548 19.4137 146.393 19.874C146.238 20.3298 146.01 20.7285 145.709 21.0703C145.413 21.4076 145.048 21.6696 144.615 21.8564C144.182 22.0433 143.686 22.1367 143.125 22.1367C142.564 22.1367 142.065 22.0433 141.628 21.8564C141.195 21.6696 140.828 21.4076 140.527 21.0703C140.231 20.7285 140.006 20.3298 139.851 19.874C139.696 19.4137 139.618 18.9147 139.618 18.377ZM141.587 18.2334V18.377C141.587 18.6868 141.614 18.9762 141.669 19.2451C141.724 19.514 141.81 19.751 141.929 19.9561C142.052 20.1566 142.211 20.3138 142.407 20.4277C142.603 20.5417 142.842 20.5986 143.125 20.5986C143.398 20.5986 143.633 20.5417 143.829 20.4277C144.025 20.3138 144.182 20.1566 144.301 19.9561C144.419 19.751 144.506 19.514 144.561 19.2451C144.62 18.9762 144.649 18.6868 144.649 18.377V18.2334C144.649 17.9326 144.62 17.6501 144.561 17.3857C144.506 17.1169 144.417 16.8799 144.294 16.6748C144.175 16.4652 144.018 16.3011 143.822 16.1826C143.626 16.0641 143.389 16.0049 143.111 16.0049C142.833 16.0049 142.596 16.0641 142.4 16.1826C142.209 16.3011 142.052 16.4652 141.929 16.6748C141.81 16.8799 141.724 17.1169 141.669 17.3857C141.614 17.6501 141.587 17.9326 141.587 18.2334ZM149.804 16.2168V22H147.835V14.6035H149.688L149.804 16.2168ZM152.032 14.5557L151.998 16.3809C151.902 16.3672 151.786 16.3558 151.649 16.3467C151.517 16.333 151.396 16.3262 151.287 16.3262C151.009 16.3262 150.768 16.3626 150.562 16.4355C150.362 16.5039 150.193 16.6064 150.057 16.7432C149.924 16.8799 149.824 17.0462 149.756 17.2422C149.692 17.4382 149.656 17.6615 149.646 17.9121L149.25 17.7891C149.25 17.3105 149.298 16.8708 149.394 16.4697C149.489 16.0641 149.628 15.7109 149.811 15.4102C149.997 15.1094 150.225 14.877 150.494 14.7129C150.763 14.5488 151.071 14.4668 151.417 14.4668C151.526 14.4668 151.638 14.4759 151.752 14.4941C151.866 14.5078 151.959 14.5283 152.032 14.5557ZM156.229 22.1367C155.655 22.1367 155.14 22.0456 154.685 21.8633C154.229 21.6764 153.841 21.4189 153.522 21.0908C153.208 20.7627 152.966 20.3822 152.798 19.9492C152.629 19.5117 152.545 19.0469 152.545 18.5547V18.2812C152.545 17.7207 152.625 17.208 152.784 16.7432C152.944 16.2783 153.172 15.875 153.468 15.5332C153.769 15.1914 154.133 14.9294 154.562 14.7471C154.99 14.5602 155.473 14.4668 156.011 14.4668C156.535 14.4668 157 14.5534 157.405 14.7266C157.811 14.8997 158.15 15.1458 158.424 15.4648C158.702 15.7839 158.911 16.1667 159.053 16.6133C159.194 17.0553 159.265 17.5475 159.265 18.0898V18.9102H153.386V17.5977H157.33V17.4473C157.33 17.1738 157.28 16.93 157.18 16.7158C157.084 16.4971 156.938 16.3239 156.742 16.1963C156.546 16.0687 156.296 16.0049 155.99 16.0049C155.73 16.0049 155.507 16.0618 155.32 16.1758C155.133 16.2897 154.981 16.4492 154.862 16.6543C154.748 16.8594 154.662 17.1009 154.603 17.3789C154.548 17.6523 154.521 17.9531 154.521 18.2812V18.5547C154.521 18.8509 154.562 19.1243 154.644 19.375C154.73 19.6257 154.851 19.8421 155.006 20.0244C155.165 20.2067 155.357 20.348 155.58 20.4482C155.808 20.5485 156.065 20.5986 156.353 20.5986C156.708 20.5986 157.038 20.5303 157.344 20.3936C157.654 20.2523 157.92 20.0404 158.144 19.7578L159.101 20.7969C158.946 21.0202 158.734 21.2344 158.465 21.4395C158.201 21.6445 157.882 21.8132 157.508 21.9453C157.134 22.0729 156.708 22.1367 156.229 22.1367Z" fill="white"/>
                    <path d="M35.0463 0H0.214311C0.0960349 0 0 0.0964564 0 0.215448V33.7193C0 33.8383 0.0960349 33.9347 0.214311 33.9347H35.0463C35.1646 33.9347 35.26 33.8383 35.26 33.7193V0.215448C35.26 0.0964564 35.1646 0 35.0463 0Z" fill="#545BE8"/>
                    <path d="M9.31909 7.46802V26.4666" stroke="white" stroke-width="3.08178"/>
                    <path d="M15.012 7.46802V16.9314" stroke="white" stroke-width="3.07593"/>
                    <path d="M19.3488 7.46875V10.6831H24.7812L28.7219 18.826H32.2702L26.6348 7.46875H19.3488Z" fill="white"/>
                    <path d="M20.963 14.1665V26.8438" stroke="white" stroke-width="3.56014"/>
</svg>